<?xml version="1.0" standalone="no"?>
<!DOCTYPE svg PUBLIC "-//W3C//DTD SVG 20010904//EN"
 "http://www.w3.org/TR/2001/REC-SVG-20010904/DTD/svg10.dtd">
<svg version="1.0" xmlns="http://www.w3.org/2000/svg"
 width="167.000000pt" height="167.000000pt" viewBox="0 0 167.000000 167.000000"
 preserveAspectRatio="xMidYMid meet">
<metadata>
Created by potrace 1.14, written by Peter Selinger 2001-2017
</metadata>
<g transform="translate(0.000000,167.000000) scale(0.100000,-0.100000)"
fill="#000000" stroke="none">
<path d="M560 1203 c0 -5 -10 -20 -23 -34 -12 -15 -33 -41 -47 -59 -14 -18
-45 -59 -70 -90 -25 -32 -58 -75 -75 -96 -16 -21 -48 -61 -70 -89 -22 -27 -72
-90 -110 -140 -38 -49 -72 -92 -75 -95 -3 -3 -20 -25 -39 -50 -19 -25 -39 -51
-44 -57 -7 -10 49 -13 276 -13 l285 0 68 88 c38 48 73 92 79 98 5 6 35 44 65
83 l55 71 30 -34 c17 -19 66 -81 110 -137 44 -57 88 -113 97 -123 10 -11 18
-23 18 -28 0 -23 30 -2 65 44 53 70 394 505 462 589 29 36 53 69 53 73 0 3
-127 6 -283 6 l-282 0 -55 -71 c-30 -38 -63 -80 -72 -92 -9 -12 -45 -57 -78
-100 l-62 -77 -135 170 c-74 93 -136 170 -139 170 -2 0 -4 -3 -4 -7z"/>
</g>
</svg>
