<svg width="8" height="6" viewBox="0 0 8 6" fill="none" xmlns="http://www.w3.org/2000/svg">
<path d="M4.00223 6C4.18427 5.99848 4.34083 5.92493 4.4816 5.77046L7.82749 2.09393C7.94138 1.97178 8 1.82424 8 1.64872C8 1.28812 7.73446 1 7.40249 1C7.23887 1 7.08556 1.07051 6.96598 1.20003L3.80152 4.69068H4.20558L1.03543 1.20003C0.917508 1.07355 0.765601 1 0.597515 1C0.264164 1 0 1.28812 0 1.64872C0 1.82272 0.0600773 1.97026 0.171125 2.09718L3.51983 5.77046C3.66667 5.92797 3.81858 6 4.00223 6Z" fill="white"/>
</svg>
