<svg width="41" height="41" viewBox="0 0 41 41" fill="none" xmlns="http://www.w3.org/2000/svg">
<mask id="mask0_163_117" style="mask-type:alpha" maskUnits="userSpaceOnUse" x="0" y="0" width="41" height="41">
<rect width="40.1854" height="40.1854" fill="#D9D9D9"/>
</mask>
<g mask="url(#mask0_163_117)">
<path d="M13.9104 37.6736C13.0754 37.6736 12.3622 37.3779 11.7708 36.7865C11.1793 36.1951 10.8836 35.4819 10.8836 34.6468V28.5289H13.3952V30.5576H30.1391V9.62756H13.3952V11.6562H10.8836V5.53828C10.8836 4.70323 11.1793 3.99001 11.7708 3.39861C12.3622 2.80719 13.0754 2.51147 13.9104 2.51147H29.6238C30.4589 2.51147 31.1721 2.80719 31.7635 3.39861C32.3549 3.99001 32.6507 4.70323 32.6507 5.53828V34.6468C32.6507 35.4819 32.3549 36.1951 31.7635 36.7865C31.1721 37.378 30.4589 37.6737 29.6238 37.6737L13.9104 37.6736ZM13.3952 33.0691V34.6469C13.3952 34.7757 13.4488 34.8938 13.5562 35.0011C13.6635 35.1085 13.7816 35.1621 13.9104 35.1621H29.6238C29.7527 35.1621 29.8708 35.1085 29.9781 35.0011C30.0854 34.8938 30.1391 34.7757 30.1391 34.6469V33.0691H13.3952ZM7.36736 27.8849L5.60284 26.1204L15.3981 16.3251H8.79064V13.8136H19.6741V24.6971H17.1626V18.0896L7.36736 27.8849ZM13.3952 7.11605H30.1391V5.53828C30.1391 5.40946 30.0854 5.29137 29.9781 5.18402C29.8708 5.07669 29.7527 5.02302 29.6238 5.02302H13.9104C13.7816 5.02302 13.6635 5.07669 13.5562 5.18402C13.4488 5.29137 13.3952 5.40946 13.3952 5.53828V7.11605Z" fill="white"/>
</g>
</svg>
