<svg width="41" height="41" viewBox="0 0 41 41" fill="none" xmlns="http://www.w3.org/2000/svg">
<mask id="mask0_163_122" style="mask-type:alpha" maskUnits="userSpaceOnUse" x="0" y="0" width="41" height="41">
<rect width="40.1854" height="40.1854" fill="#D9D9D9"/>
</mask>
<g mask="url(#mask0_163_122)">
<path d="M23.8601 28.0459H31.3948V20.5112H28.8833V25.5344H23.8601V28.0459ZM8.79056 19.6739H11.3021V14.6508H16.3252V12.1392H8.79056V19.6739ZM7.21277 32.6505C6.36698 32.6505 5.65107 32.3575 5.06503 31.7714C4.47899 31.1854 4.18597 30.4695 4.18597 29.6237V10.5615C4.18597 9.71568 4.47899 8.99976 5.06503 8.41372C5.65107 7.82769 6.36698 7.53467 7.21277 7.53467H32.9726C33.8183 7.53467 34.5343 7.82769 35.1203 8.41372C35.7063 8.99976 35.9994 9.71568 35.9994 10.5615V29.6237C35.9994 30.4695 35.7063 31.1854 35.1203 31.7714C34.5343 32.3575 33.8183 32.6505 32.9726 32.6505H7.21277ZM7.21277 30.1389H32.9726C33.1014 30.1389 33.2195 30.0853 33.3268 29.9779C33.4341 29.8706 33.4878 29.7525 33.4878 29.6237V10.5615C33.4878 10.4327 33.4341 10.3146 33.3268 10.2072C33.2195 10.0999 33.1014 10.0462 32.9726 10.0462H7.21277C7.08396 10.0462 6.96587 10.0999 6.85851 10.2072C6.75119 10.3146 6.69752 10.4327 6.69752 10.5615V29.6237C6.69752 29.7525 6.75119 29.8706 6.85851 29.9779C6.96587 30.0853 7.08396 30.1389 7.21277 30.1389Z" fill="white"/>
</g>
</svg>
