<svg width="40" height="40" viewBox="0 0 40 40" fill="none" xmlns="http://www.w3.org/2000/svg">
<mask id="mask0_163_132" style="mask-type:alpha" maskUnits="userSpaceOnUse" x="0" y="0" width="40" height="40">
<rect width="40" height="40" fill="#D9D9D9"/>
</mask>
<g mask="url(#mask0_163_132)">
<path d="M6.66665 35C5.74998 35 4.96526 34.6736 4.31248 34.0208C3.6597 33.3681 3.33331 32.5833 3.33331 31.6667V20H6.66665V31.6667H21.6666V35H6.66665ZM13.3333 28.3333C12.4166 28.3333 11.6319 28.0069 10.9791 27.3542C10.3264 26.7014 9.99998 25.9167 9.99998 25V13.3333H13.3333V25H28.3333V28.3333H13.3333ZM20 21.6667C19.0833 21.6667 18.2986 21.3403 17.6458 20.6875C16.993 20.0347 16.6666 19.25 16.6666 18.3333V8.33333C16.6666 7.41667 16.993 6.63194 17.6458 5.97917C18.2986 5.32639 19.0833 5 20 5H33.3333C34.25 5 35.0347 5.32639 35.6875 5.97917C36.3403 6.63194 36.6666 7.41667 36.6666 8.33333V18.3333C36.6666 19.25 36.3403 20.0347 35.6875 20.6875C35.0347 21.3403 34.25 21.6667 33.3333 21.6667H20ZM20 18.3333H33.3333V11.6667H20V18.3333Z" fill="white"/>
</g>
</svg>
