<svg width="40" height="40" viewBox="0 0 40 40" fill="none" xmlns="http://www.w3.org/2000/svg">
<mask id="mask0_163_127" style="mask-type:alpha" maskUnits="userSpaceOnUse" x="0" y="0" width="40" height="40">
<rect width="39.75" height="39.75" fill="#D9D9D9"/>
</mask>
<g mask="url(#mask0_163_127)">
<path d="M11.5938 26.5C12.063 26.5 12.4564 26.3413 12.7738 26.0238C13.0913 25.7064 13.25 25.313 13.25 24.8438C13.25 24.3745 13.0913 23.9811 12.7738 23.6637C12.4564 23.3462 12.063 23.1875 11.5938 23.1875C11.1245 23.1875 10.7311 23.3462 10.4137 23.6637C10.0962 23.9811 9.9375 24.3745 9.9375 24.8438C9.9375 25.313 10.0962 25.7064 10.4137 26.0238C10.7311 26.3413 11.1245 26.5 11.5938 26.5ZM9.9375 21.5312H13.25V13.25H9.9375V21.5312ZM16.5625 24.8438H29.8125V21.5312H16.5625V24.8438ZM16.5625 18.2188H29.8125V14.9062H16.5625V18.2188ZM6.625 33.125C5.71406 33.125 4.93424 32.8007 4.28555 32.152C3.63685 31.5033 3.3125 30.7234 3.3125 29.8125V9.9375C3.3125 9.02656 3.63685 8.24674 4.28555 7.59805C4.93424 6.94935 5.71406 6.625 6.625 6.625H33.125C34.0359 6.625 34.8158 6.94935 35.4645 7.59805C36.1132 8.24674 36.4375 9.02656 36.4375 9.9375V29.8125C36.4375 30.7234 36.1132 31.5033 35.4645 32.152C34.8158 32.8007 34.0359 33.125 33.125 33.125H6.625ZM6.625 29.8125H33.125V9.9375H6.625V29.8125Z" fill="white"/>
</g>
</svg>
